#Comment line ignore any data following # character 
#Hierarchical Translation and Rotation (.htr) file 
[Header]	
#Header keywords are followed by a single value 
FileType HTR		#Single word string
DataType HTRS		#Translation followed by rotation and scale data
FileVersion 1		#integer
NumSegments 84		#integer
NumFrames 2		#integer
DataFrameRate 30		#integer, data frame rate in this file
EulerRotationOrder ZYX
CalibrationUnits mm
RotationUnits Degrees
GlobalAxisofGravity Y
BoneLengthAxis Y
ScaleFactor 1.00
[SegmentNames&Hierarchy]
#CHILD	PARENT
MASTER GLOBAL
root MASTER
chest root
L_mid_tent01 root
R_mid_tent01 root
spine01 root
Bip01_Neck chest
L_humerus chest
R_humerus chest
weapon_bone chest
Bip01_Head Bip01_Neck
eye_left_bone Bip01_Head
eye_right_bone Bip01_Head
L_forearm L_humerus
L_front_hand L_forearm
L_weapon_bone L_forearm
L_front_hand01_01 L_front_hand
L_front_hand02_01 L_front_hand
L_front_hand03_01 L_front_hand
L_front_hand01_02 L_front_hand01_01
L_front_hand02_02 L_front_hand02_01
L_front_hand03_02 L_front_hand03_01
R_forearm R_humerus
R_front_hand R_forearm
R_weapon_bone R_forearm
R_front_hand01_01 R_front_hand
R_front_hand02_01 R_front_hand
R_front_hand03_01 R_front_hand
R_front_hand01_02 R_front_hand01_01
R_front_hand02_02 R_front_hand02_01
R_front_hand03_02 R_front_hand03_01
null_rope01_connect L_mid_tent01
Rope1_Seg01 null_rope01_connect
Rope1_Seg02 Rope1_Seg01
Rope1_Seg03 Rope1_Seg02
Rope1_Seg04 Rope1_Seg03
Rope1_Seg05 Rope1_Seg04
Rope1_Seg06 Rope1_Seg05
Rope1_Seg07 Rope1_Seg06
Rope1_Seg09 Rope1_Seg07
L_mid_hand01 Rope1_Seg09
L_mid_hand02 Rope1_Seg09
L_mid_hand03 Rope1_Seg09
null_rope02_connect R_mid_tent01
Rope2_Seg01 null_rope02_connect
Rope2_Seg02 Rope2_Seg01
Rope2_Seg03 Rope2_Seg02
Rope2_Seg04 Rope2_Seg03
Rope2_Seg05 Rope2_Seg04
Rope2_Seg06 Rope2_Seg05
Rope2_Seg07 Rope2_Seg06
Rope2_Seg09 Rope2_Seg07
R_mid_hand01 Rope2_Seg09
R_mid_hand02 Rope2_Seg09
R_mid_hand03 Rope2_Seg09
spine02 spine01
spine03 spine02
pelvis spine03
null_rope03_connect pelvis
null_rope04_connect pelvis
Rope3_Seg01 null_rope03_connect
Rope3_Seg02 Rope3_Seg01
Rope3_Seg03 Rope3_Seg02
Rope3_Seg04 Rope3_Seg03
Rope3_Seg05 Rope3_Seg04
Rope3_Seg06 Rope3_Seg05
Rope3_Seg07 Rope3_Seg06
Rope3_Seg08 Rope3_Seg07
Rope3_Seg09 Rope3_Seg08
R_rear_hand01 Rope3_Seg09
R_rear_hand02 Rope3_Seg09
R_rear_hand03 Rope3_Seg09
Rope4_Seg01 null_rope04_connect
Rope4_Seg02 Rope4_Seg01
Rope4_Seg03 Rope4_Seg02
Rope4_Seg04 Rope4_Seg03
Rope4_Seg05 Rope4_Seg04
Rope4_Seg06 Rope4_Seg05
Rope4_Seg07 Rope4_Seg06
Rope4_Seg08 Rope4_Seg07
Rope4_Seg09 Rope4_Seg08
L_rear_hand01 Rope4_Seg09
L_rear_hand02 Rope4_Seg09
L_rear_hand03 Rope4_Seg09
[BasePosition]
#SegmentName Tx, Ty, Tz, Rx, Ry, Rz, BoneLength
MASTER 0.000000 0.000000 0.000000 -90.000000 0.000000 0.000000 10.000000 
root 0.000000 0.000000 0.000000 0.000000 0.000000 0.000000 10.000000 
chest 0.000000 0.000000 0.000000 0.000000 0.000000 0.000000 10.000000 
L_mid_tent01 0.000000 0.000000 0.000000 0.000000 0.000000 0.000000 10.000000 
R_mid_tent01 0.000000 0.000000 0.000000 0.000000 0.000000 0.000000 10.000000 
spine01 0.000000 0.000000 0.000000 0.000000 0.000000 0.000000 10.000000 
Bip01_Neck 0.000000 0.000000 0.000000 0.000000 0.000000 0.000000 10.000000 
L_humerus 0.000000 0.000000 0.000000 0.000000 0.000000 0.000000 10.000000 
R_humerus 0.000000 0.000000 0.000000 0.000000 0.000000 0.000000 10.000000 
weapon_bone 0.000000 0.000000 0.000000 0.000000 0.000000 0.000000 10.000000 
Bip01_Head 0.000000 0.000000 0.000000 0.000000 0.000000 0.000000 10.000000 
eye_left_bone 0.000000 0.000000 0.000000 0.000000 0.000000 0.000000 10.000000 
eye_right_bone 0.000000 0.000000 0.000000 0.000000 0.000000 0.000000 10.000000 
L_forearm 0.000000 0.000000 0.000000 0.000000 0.000000 0.000000 10.000000 
L_front_hand 0.000000 0.000000 0.000000 0.000000 0.000000 0.000000 10.000000 
L_weapon_bone 0.000000 0.000000 0.000000 0.000000 0.000000 0.000000 10.000000 
L_front_hand01_01 0.000000 0.000000 0.000000 0.000000 0.000000 0.000000 10.000000 
L_front_hand02_01 0.000000 0.000000 0.000000 0.000000 0.000000 0.000000 10.000000 
L_front_hand03_01 0.000000 0.000000 0.000000 0.000000 0.000000 0.000000 10.000000 
L_front_hand01_02 0.000000 0.000000 0.000000 0.000000 0.000000 0.000000 10.000000 
L_front_hand02_02 0.000000 0.000000 0.000000 0.000000 0.000000 0.000000 10.000000 
L_front_hand03_02 0.000000 0.000000 0.000000 0.000000 0.000000 0.000000 10.000000 
R_forearm 0.000000 0.000000 0.000000 0.000000 0.000000 0.000000 10.000000 
R_front_hand 0.000000 0.000000 0.000000 0.000000 0.000000 0.000000 10.000000 
R_weapon_bone 0.000000 0.000000 0.000000 0.000000 0.000000 0.000000 10.000000 
R_front_hand01_01 0.000000 0.000000 0.000000 0.000000 0.000000 0.000000 10.000000 
R_front_hand02_01 0.000000 0.000000 0.000000 0.000000 0.000000 0.000000 10.000000 
R_front_hand03_01 0.000000 0.000000 0.000000 0.000000 0.000000 0.000000 10.000000 
R_front_hand01_02 0.000000 0.000000 0.000000 0.000000 0.000000 0.000000 10.000000 
R_front_hand02_02 0.000000 0.000000 0.000000 0.000000 0.000000 0.000000 10.000000 
R_front_hand03_02 0.000000 0.000000 0.000000 0.000000 0.000000 0.000000 10.000000 
null_rope01_connect 0.000000 0.000000 0.000000 0.000000 0.000000 0.000000 10.000000 
Rope1_Seg01 0.000000 0.000000 0.000000 0.000000 0.000000 0.000000 10.000000 
Rope1_Seg02 0.000000 0.000000 0.000000 0.000000 0.000000 0.000000 10.000000 
Rope1_Seg03 0.000000 0.000000 0.000000 0.000000 0.000000 0.000000 10.000000 
Rope1_Seg04 0.000000 0.000000 0.000000 0.000000 0.000000 0.000000 10.000000 
Rope1_Seg05 0.000000 0.000000 0.000000 0.000000 0.000000 0.000000 10.000000 
Rope1_Seg06 0.000000 0.000000 0.000000 0.000000 0.000000 0.000000 10.000000 
Rope1_Seg07 0.000000 0.000000 0.000000 0.000000 0.000000 0.000000 10.000000 
Rope1_Seg09 0.000000 0.000000 0.000000 0.000000 0.000000 0.000000 10.000000 
L_mid_hand01 0.000000 0.000000 0.000000 0.000000 0.000000 0.000000 10.000000 
L_mid_hand02 0.000000 0.000000 0.000000 0.000000 0.000000 0.000000 10.000000 
L_mid_hand03 0.000000 0.000000 0.000000 0.000000 0.000000 0.000000 10.000000 
null_rope02_connect 0.000000 0.000000 0.000000 0.000000 0.000000 0.000000 10.000000 
Rope2_Seg01 0.000000 0.000000 0.000000 0.000000 0.000000 0.000000 10.000000 
Rope2_Seg02 0.000000 0.000000 0.000000 0.000000 0.000000 0.000000 10.000000 
Rope2_Seg03 0.000000 0.000000 0.000000 0.000000 0.000000 0.000000 10.000000 
Rope2_Seg04 0.000000 0.000000 0.000000 0.000000 0.000000 0.000000 10.000000 
Rope2_Seg05 0.000000 0.000000 0.000000 0.000000 0.000000 0.000000 10.000000 
Rope2_Seg06 0.000000 0.000000 0.000000 0.000000 0.000000 0.000000 10.000000 
Rope2_Seg07 0.000000 0.000000 0.000000 0.000000 0.000000 0.000000 10.000000 
Rope2_Seg09 0.000000 0.000000 0.000000 0.000000 0.000000 0.000000 10.000000 
R_mid_hand01 0.000000 0.000000 0.000000 0.000000 0.000000 0.000000 10.000000 
R_mid_hand02 0.000000 0.000000 0.000000 0.000000 0.000000 0.000000 10.000000 
R_mid_hand03 0.000000 0.000000 0.000000 0.000000 0.000000 0.000000 10.000000 
spine02 0.000000 0.000000 0.000000 0.000000 0.000000 0.000000 10.000000 
spine03 0.000000 0.000000 0.000000 0.000000 0.000000 0.000000 10.000000 
pelvis 0.000000 0.000000 0.000000 0.000000 0.000000 0.000000 10.000000 
null_rope03_connect 0.000000 0.000000 0.000000 0.000000 0.000000 0.000000 10.000000 
null_rope04_connect 0.000000 0.000000 0.000000 0.000000 0.000000 0.000000 10.000000 
Rope3_Seg01 0.000000 0.000000 0.000000 0.000000 0.000000 0.000000 10.000000 
Rope3_Seg02 0.000000 0.000000 0.000000 0.000000 0.000000 0.000000 10.000000 
Rope3_Seg03 0.000000 0.000000 0.000000 0.000000 0.000000 0.000000 10.000000 
Rope3_Seg04 0.000000 0.000000 0.000000 0.000000 0.000000 0.000000 10.000000 
Rope3_Seg05 0.000000 0.000000 0.000000 0.000000 0.000000 0.000000 10.000000 
Rope3_Seg06 0.000000 0.000000 0.000000 0.000000 0.000000 0.000000 10.000000 
Rope3_Seg07 0.000000 0.000000 0.000000 0.000000 0.000000 0.000000 10.000000 
Rope3_Seg08 0.000000 0.000000 0.000000 0.000000 0.000000 0.000000 10.000000 
Rope3_Seg09 0.000000 0.000000 0.000000 0.000000 0.000000 0.000000 10.000000 
R_rear_hand01 0.000000 0.000000 0.000000 0.000000 0.000000 0.000000 10.000000 
R_rear_hand02 0.000000 0.000000 0.000000 0.000000 0.000000 0.000000 10.000000 
R_rear_hand03 0.000000 0.000000 0.000000 0.000000 0.000000 0.000000 10.000000 
Rope4_Seg01 0.000000 0.000000 0.000000 0.000000 0.000000 0.000000 10.000000 
Rope4_Seg02 0.000000 0.000000 0.000000 0.000000 0.000000 0.000000 10.000000 
Rope4_Seg03 0.000000 0.000000 0.000000 0.000000 0.000000 0.000000 10.000000 
Rope4_Seg04 0.000000 0.000000 0.000000 0.000000 0.000000 0.000000 10.000000 
Rope4_Seg05 0.000000 0.000000 0.000000 0.000000 0.000000 0.000000 10.000000 
Rope4_Seg06 0.000000 0.000000 0.000000 0.000000 0.000000 0.000000 10.000000 
Rope4_Seg07 0.000000 0.000000 0.000000 0.000000 0.000000 0.000000 10.000000 
Rope4_Seg08 0.000000 0.000000 0.000000 0.000000 0.000000 0.000000 10.000000 
Rope4_Seg09 0.000000 0.000000 0.000000 0.000000 0.000000 0.000000 10.000000 
L_rear_hand01 0.000000 0.000000 0.000000 0.000000 0.000000 0.000000 10.000000 
L_rear_hand02 0.000000 0.000000 0.000000 0.000000 0.000000 0.000000 10.000000 
L_rear_hand03 0.000000 0.000000 0.000000 0.000000 0.000000 0.000000 10.000000 
#Beginning of Data. Separated by tabs
#Fr	Tx	Ty	Tz	Rx	Ry	Rz	SF
[MASTER]
16 -141.728989 2717.304688 1824.412842 0.001660 0.001660 0.001660 3276.020996
17 -137.513031 3046.601563 1778.031860 0.001660 0.001660 0.001660 3530.168213
[root]
16 10.025844 111.731262 804.705505 -95.799911 -7.458165 -89.897591 812.487122
17 0.869741 158.659958 825.588928 -96.184105 -9.431182 -89.190697 840.696594
[chest]
16 -84.512650 -34.090519 0.000000 4.711534 10.083513 145.500504 91.129311
17 -84.512650 -34.090519 0.000000 2.468426 8.240129 144.190536 91.129311
[L_mid_tent01]
16 27.299135 22.179068 -249.918701 -0.109586 18.979359 80.965538 252.381683
17 27.299137 22.179066 -249.918701 -0.136843 18.701595 81.119820 252.381683
[R_mid_tent01]
16 23.228794 24.509907 226.238495 153.450485 -28.805231 66.784492 228.744751
17 23.228794 24.509907 226.238495 149.699249 -30.547520 66.664360 228.744751
[spine01]
16 -0.361383 -0.195265 0.000000 -0.000001 -0.000007 22.052340 0.410763
17 -0.361383 -0.195265 0.000000 -0.000001 -0.000007 22.052340 0.410763
[Bip01_Neck]
16 165.484543 71.581718 0.000119 176.643677 -1.657967 43.431911 180.302734
17 165.484543 71.581718 0.000119 176.643677 -1.657967 43.431911 180.302734
[L_humerus]
16 -13.983130 -135.272980 -120.471481 157.361694 67.746651 -110.857552 181.680161
17 -13.983130 -135.272980 -120.471481 162.537201 60.456589 -105.148979 181.680161
[R_humerus]
16 -13.983309 -135.273102 125.287651 -174.870880 -38.880108 -89.427559 184.909012
17 -13.983309 -135.273102 125.287651 -175.315201 -32.719784 -88.781494 184.909012
[weapon_bone]
16 235.964890 -300.705902 0.000000 0.000000 -89.951546 -128.212341 382.234833
17 235.964890 -300.705902 0.000000 0.000000 -89.951546 -128.212341 382.234833
[Bip01_Head]
16 213.334717 186.008072 7.814588 4.962490 2.797846 -43.898743 283.146210
17 213.337387 185.996689 7.899742 4.962490 2.797846 -43.898743 283.143127
[eye_left_bone]
16 -24.626970 125.451866 -64.772606 0.000000 -90.000000 -99.840431 143.318359
17 -24.626970 125.451866 -64.772606 0.000000 -90.000000 -99.840431 143.318359
[eye_right_bone]
16 -24.626970 125.451866 64.327362 0.000000 -89.965736 80.156380 143.117676
17 -24.626970 125.451866 64.327362 0.000000 -89.980217 80.156380 143.117676
[L_forearm]
16 322.776093 0.000000 -0.000119 0.000408 -0.002312 -109.997597 322.776093
17 322.776093 0.000000 -0.000119 0.000408 -0.002312 -110.000618 322.776093
[L_front_hand]
16 241.149185 -0.042021 -3.300071 49.010834 -1.833984 -27.425117 241.171753
17 241.149185 -0.042021 -3.300071 19.714808 -1.837144 -27.423819 241.171753
[L_weapon_bone]
16 156.183838 0.000000 0.000000 0.000014 0.000007 0.000001 156.183838
17 156.183838 0.000000 0.000000 0.000014 0.000007 0.000001 156.183838
[L_front_hand01_01]
16 86.095154 20.947098 -0.655860 -0.307662 -0.512638 68.898666 88.609184
17 86.095154 20.947098 -0.655860 -0.320916 -0.506937 70.186226 88.609184
[L_front_hand02_01]
16 86.935165 -11.437475 24.513514 145.311646 -56.611832 -50.692287 91.046425
17 86.935165 -11.437475 24.513514 146.956512 -57.330299 -52.653660 91.046425
[L_front_hand03_01]
16 86.637497 -14.123976 -20.424902 -145.445206 54.832184 -52.559963 90.126129
17 86.637497 -14.123976 -20.424902 -146.987762 55.547066 -54.435081 90.126129
[L_front_hand01_02]
16 71.020905 -0.000179 0.000030 0.000300 -0.002328 -104.690079 71.020905
17 71.020905 -0.000179 0.000030 0.000294 -0.002329 -104.402451 71.020905
[L_front_hand02_02]
16 71.020927 -0.000119 0.000060 0.000300 -0.002328 -104.690079 71.020927
17 71.020927 -0.000119 0.000060 0.000294 -0.002329 -104.402451 71.020927
[L_front_hand03_02]
16 71.020905 -0.000060 0.000060 0.000300 -0.002328 -104.690079 71.020905
17 71.020905 -0.000060 0.000060 0.000294 -0.002329 -104.402451 71.020905
[R_forearm]
16 322.776428 -0.000060 0.000030 0.201644 0.066564 -108.861305 322.776428
17 322.776428 -0.000060 0.000030 0.201630 0.066607 -108.885620 322.776428
[R_front_hand]
16 238.847015 -0.006795 2.210259 -171.241623 -10.643134 -26.311672 238.857239
17 238.847015 -0.006795 2.210259 -132.962891 -10.644146 -26.312435 238.857239
[R_weapon_bone]
16 155.664093 0.002503 -0.000030 0.003487 0.001180 -90.988930 155.664078
17 155.664093 0.002503 -0.000030 0.003487 0.001180 -90.988930 155.664078
[R_front_hand01_01]
16 87.624611 14.231146 22.918642 -147.366211 -57.494862 53.245693 91.683487
17 87.624611 14.231146 22.918642 -150.820541 -58.784569 57.311836 91.683487
[R_front_hand02_01]
16 89.356956 14.367283 -19.491137 147.772614 55.873154 55.617844 92.579636
17 89.356956 14.367283 -19.491137 151.027069 57.144753 59.518578 92.579636
[R_front_hand03_01]
16 87.286232 -22.307278 -0.143439 0.124412 -0.437303 -70.732674 90.091743
17 87.286232 -22.307278 -0.143439 0.144811 -0.432555 -73.232849 90.091743
[R_front_hand01_02]
16 71.020905 0.000060 0.000119 0.002331 -0.000274 103.397835 71.020905
17 71.020905 0.000060 0.000119 0.002332 -0.000271 103.276939 71.020905
[R_front_hand02_02]
16 71.020844 -0.000030 -0.000119 0.002331 -0.000274 103.397835 71.020836
17 71.020844 -0.000030 -0.000119 0.002332 -0.000271 103.276939 71.020836
[R_front_hand03_02]
16 71.020905 0.000000 0.000030 0.002331 -0.000274 103.397835 71.020905
17 71.020905 0.000000 0.000030 0.002332 -0.000271 103.276939 71.020905
[null_rope01_connect]
16 328.732483 0.000000 -0.000238 -165.994598 -65.297928 -177.359665 328.732483
17 328.732483 0.000000 -0.000238 -165.833282 -65.373207 -175.552872 328.732483
[Rope1_Seg01]
16 0.000057 -0.000184 0.000000 -43.224365 -36.590405 -169.833847 0.000192
17 0.000056 -0.000193 0.000000 -29.537239 -34.341572 167.404327 0.000201
[Rope1_Seg02]
16 139.999863 -0.000179 0.000000 8.936041 13.372514 0.951455 139.999863
17 139.999863 -0.000179 0.000000 7.695788 8.785151 9.865541 139.999863
[Rope1_Seg03]
16 139.999924 0.000060 -0.000060 6.866089 23.460596 -3.202014 139.999924
17 139.999924 0.000060 -0.000060 13.955441 17.693388 15.280793 139.999924
[Rope1_Seg04]
16 139.999924 -0.000060 -0.000119 -0.778708 23.066778 -9.981998 139.999924
17 139.999924 -0.000060 -0.000119 10.966448 22.019983 11.367142 139.999924
[Rope1_Seg05]
16 139.999832 0.000119 -0.000060 -4.118781 26.326126 3.069110 139.999832
17 139.999832 0.000119 -0.000060 12.048429 29.740536 19.104633 139.999832
[Rope1_Seg06]
16 139.999954 0.000119 -0.000060 -13.421848 43.906658 21.698132 139.999954
17 139.999954 0.000119 -0.000060 5.263425 30.980339 16.194065 139.999954
[Rope1_Seg07]
16 139.999985 0.000060 0.000000 -8.506590 14.715947 12.141438 139.999985
17 139.999985 0.000060 0.000000 -0.772705 11.783007 4.935368 139.999985
[Rope1_Seg09]
16 121.602913 0.000119 -0.000089 -89.793175 -1.359789 0.847147 121.602913
17 121.602913 0.000119 -0.000089 -89.793175 -1.359789 0.847147 121.602913
[L_mid_hand01]
16 103.859421 1.038730 8.195221 112.678772 -49.980732 -18.276018 104.187431
17 103.859421 1.038730 8.195221 114.394852 -53.111439 -20.468830 104.187431
[L_mid_hand02]
16 105.572853 -4.139662 -10.864139 -152.571289 36.560631 -48.342625 106.211075
17 105.572853 -4.139662 -10.864139 -154.909470 38.072205 -52.197872 106.211075
[L_mid_hand03]
16 104.641464 17.579376 -3.913581 -11.926217 14.597142 53.941059 106.179977
17 104.641464 17.579376 -3.913581 -11.031654 15.280054 57.403896 106.179977
[null_rope02_connect]
16 328.732849 0.000179 -0.000119 -96.057587 53.230507 48.215542 328.732849
17 328.732849 0.000179 -0.000119 -91.363777 48.752174 49.666481 328.732849
[Rope2_Seg01]
16 0.000095 0.000241 0.000000 134.103638 -61.287281 15.088259 0.000259
17 0.000095 0.000249 0.000000 132.075821 -60.857704 16.916824 0.000267
[Rope2_Seg02]
16 139.999741 -0.000060 -0.000119 -5.178428 -3.393690 -8.217733 139.999756
17 139.999741 -0.000060 -0.000119 -3.818865 -6.161411 -3.886913 139.999756
[Rope2_Seg03]
16 140.000107 0.000030 0.000000 -15.872651 -17.049850 -29.778250 140.000107
17 140.000107 0.000030 0.000000 -21.009356 -27.602810 -10.347434 140.000107
[Rope2_Seg04]
16 139.999802 0.000000 -0.000060 -15.713588 20.746077 -59.912582 139.999802
17 139.999802 0.000000 -0.000060 -31.758959 -4.132143 -75.664429 139.999802
[Rope2_Seg05]
16 139.999985 -0.000060 0.000119 -2.641464 21.297176 -8.434407 139.999985
17 139.999985 -0.000060 0.000119 -7.075693 37.881382 -15.546523 139.999985
[Rope2_Seg06]
16 139.999893 -0.000030 -0.000119 0.958281 4.547097 -3.217672 139.999893
17 139.999893 -0.000030 -0.000119 0.346742 5.147448 -2.899028 139.999893
[Rope2_Seg07]
16 139.999893 0.000060 -0.000060 0.631518 2.271450 -1.667767 139.999893
17 139.999893 0.000060 -0.000060 0.230213 2.393539 -1.373716 139.999893
[Rope2_Seg09]
16 121.338966 0.000089 -0.000060 33.793236 -1.359788 -0.847141 121.338966
17 121.338966 0.000089 -0.000060 33.793236 -1.359788 -0.847141 121.338966
[R_mid_hand01]
16 104.680779 11.144459 -10.335981 -37.204079 31.906813 37.576260 105.778534
17 104.680779 11.144459 -10.335981 -36.871494 32.306065 38.202835 105.778534
[R_mid_hand02]
16 104.070427 2.443552 8.231699 70.367462 -42.427391 14.067809 104.424065
17 104.070427 2.443552 8.231699 70.159821 -43.055164 14.371493 104.424065
[R_mid_hand03]
16 106.028137 -11.221827 -5.996406 -169.893616 12.226661 -47.211018 106.788818
17 106.028137 -11.221827 -5.996406 -170.040359 12.343988 -47.884888 106.788818
[spine02]
16 129.756927 0.001550 0.000119 0.536160 -4.024111 -15.474529 129.756927
17 129.756927 0.001550 0.000119 0.540546 -4.023519 -15.529612 129.756927
[spine03]
16 78.614021 0.081673 -4.899001 2.000409 3.778174 18.063997 78.766556
17 78.614021 0.081676 -4.899001 2.001413 3.775873 18.102394 78.766556
[pelvis]
16 169.435242 0.051022 0.000000 -0.070417 -0.177702 17.323198 169.435257
17 169.435242 0.051022 0.000000 -0.070499 -0.177670 17.375732 169.435257
[null_rope03_connect]
16 -1.257226 -2.466202 137.391083 -171.819733 -85.520187 -132.676056 137.418976
17 -1.257226 -2.466202 137.391083 -178.350204 -85.213043 -124.184166 137.418976
[null_rope04_connect]
16 -1.259640 -2.480268 -137.844437 -171.819733 -85.520187 -132.676056 137.872513
17 -1.259640 -2.480268 -137.844437 -178.350204 -85.213043 -124.184166 137.872513
[Rope3_Seg01]
16 0.000000 0.000000 0.000000 8.887775 -43.643608 -59.274239 0.000000
17 0.000000 0.000000 0.000000 8.491901 -54.774082 -58.627232 0.000000
[Rope3_Seg02]
16 139.999924 -0.000119 0.000060 -0.800894 1.197508 14.748622 139.999924
17 139.999924 -0.000119 0.000060 -0.183760 -1.724997 9.656089 139.999924
[Rope3_Seg03]
16 139.999924 -0.000119 0.000119 -23.356281 2.320370 50.010426 139.999924
17 139.999924 -0.000119 0.000119 -5.102653 -4.261518 24.494539 139.999924
[Rope3_Seg04]
16 139.999924 0.000119 0.000000 -71.692146 -14.161303 40.782391 139.999924
17 139.999924 0.000119 0.000000 -34.296982 -10.371728 46.108162 139.999924
[Rope3_Seg05]
16 139.999924 -0.000238 0.000060 -17.346161 -15.409416 3.042546 139.999924
17 139.999924 -0.000238 0.000060 -29.196777 -17.602146 18.788967 139.999924
[Rope3_Seg06]
16 139.999893 -0.000119 -0.000060 -7.316557 -11.098975 -1.039169 139.999893
17 139.999893 -0.000119 -0.000060 -14.850349 -16.399149 5.680608 139.999893
[Rope3_Seg07]
16 139.999771 0.000060 -0.000119 -2.727025 -6.699733 -1.806138 139.999771
17 139.999771 0.000060 -0.000119 -6.217686 -10.950156 0.941531 139.999771
[Rope3_Seg08]
16 139.999985 -0.000060 0.000000 -0.972379 -3.788256 -1.223140 139.999985
17 139.999985 -0.000060 0.000000 -2.220390 -5.815591 -0.128241 139.999985
[Rope3_Seg09]
16 90.185997 -0.000179 -0.000060 89.793228 -1.359877 -0.847183 90.185997
17 90.185997 -0.000179 -0.000060 89.793228 -1.359877 -0.847183 90.185997
[R_rear_hand01]
16 103.366196 -6.073594 -10.757982 -164.972809 19.789423 -40.983833 104.101845
17 103.366196 -6.073594 -10.757982 -165.575058 20.224255 -42.745789 104.101845
[R_rear_hand02]
16 100.509819 12.039542 -7.992327 -30.544968 25.097782 38.729172 101.543350
17 100.509819 12.039542 -7.992327 -29.842968 25.960022 40.362484 101.543350
[R_rear_hand03]
16 101.539970 5.215704 5.435467 82.376854 -41.657890 8.948382 101.819031
17 101.539970 5.215704 5.435467 82.169113 -43.351929 9.256878 101.819031
[Rope4_Seg01]
16 0.000010 0.000038 -0.000114 -42.393974 -32.706573 -178.207687 0.000121
17 0.000010 0.000038 -0.000114 -53.146881 -31.059299 -169.333801 0.000121
[Rope4_Seg02]
16 139.999985 0.000060 0.000119 -4.051893 6.817008 7.996842 139.999985
17 139.999985 0.000060 0.000119 -6.908548 3.499690 10.204453 139.999985
[Rope4_Seg03]
16 139.999924 0.000000 -0.000238 -12.162258 9.834035 12.953431 139.999924
17 139.999924 0.000000 -0.000238 -16.201044 3.727061 16.178907 139.999924
[Rope4_Seg04]
16 139.999985 0.000000 0.000119 -34.243607 11.140232 15.006756 139.999985
17 139.999985 0.000000 0.000119 -29.206146 2.795966 20.123112 139.999985
[Rope4_Seg05]
16 139.999802 -0.000060 -0.000119 -63.320335 -13.775089 26.850576 139.999802
17 139.999802 -0.000060 -0.000119 -28.428022 -19.962305 16.890432 139.999802
[Rope4_Seg06]
16 139.999924 0.000000 0.000060 -4.347677 -22.471762 -3.762491 139.999924
17 139.999924 0.000000 0.000060 -4.010673 -17.013786 -0.529044 139.999924
[Rope4_Seg07]
16 139.999802 0.000000 0.000000 -1.089295 -8.530654 -1.266145 139.999802
17 139.999802 0.000000 0.000000 -1.229382 -7.062728 0.275751 139.999802
[Rope4_Seg08]
16 139.999924 0.000000 0.000119 -1.907780 -4.249992 -0.694763 139.999924
17 139.999924 0.000000 0.000119 -1.996000 -3.697078 0.105681 139.999924
[Rope4_Seg09]
16 90.185791 0.000060 0.000060 -135.617828 2.228885 0.850567 90.185791
17 90.185791 0.000060 0.000060 -135.617828 2.228885 0.850567 90.185791
[L_rear_hand01]
16 101.696655 -8.392275 -7.654577 -24.658649 -30.887175 128.783096 102.329041
17 101.696655 -8.392275 -7.654577 -22.991795 -32.088032 125.593971 102.329041
[L_rear_hand02]
16 102.726799 -1.568258 5.773216 80.302361 53.966496 168.267441 102.900848
17 102.726799 -1.568258 5.773216 79.542931 56.888847 167.348526 102.900848
[L_rear_hand03]
16 104.552910 9.721220 -10.420293 -169.691223 -22.530382 -125.995598 105.519653
17 104.552910 9.721220 -10.420293 -170.919907 -23.031248 -122.815849 105.519653
